<svg width="1250" height="403" viewBox="0 0 1250 403" fill="none" xmlns="http://www.w3.org/2000/svg">
<g clip-path="url(#clip0_901_14)">
<path d="M68 165L67 237.5C45.9885 205.738 10.1734 142.937 0.62301 120.965C0.326319 120.283 0.875106 119.564 1.61741 119.618L27.5 121.5C36 122 37.4836 121 38.5 112.5C41.1905 90 46 76.5 54.5 55C66 34.5 79 25 104.5 17C161.5 -1.5 274.5 -10.5 357 17C387 27 402.125 33.295 415.5 73.5C429.5 121 433.434 149.665 431 200.5L391.5 132C381.5 81.5 372.5 67 350 55C270 26.5 183 29.5 112.5 55C79 66 71 130.5 68 165Z" fill="#00A0FF"/>
<path d="M81 187V240.323L90.5 236L156.5 170L222.493 203.461C225.498 204.985 229.136 204.462 231.59 202.154L319.5 119.5C343 138.5 369.5 164.5 380.5 167.5C380 152.5 378.035 143.564 375.5 128C367.03 86.7635 356.121 71.5602 323 62C276 46 184.5 47.5 139 62C96.4764 69.9757 87 109 81 187Z" fill="#00A0FF"/>
<path d="M393.543 159.276L393.5 158.5C414.526 190.284 453.724 259.368 463.392 281.572C463.686 282.246 463.15 282.954 462.415 282.915L436 281.5C427.5 281 425.516 282.5 424.5 291C421.809 313.5 417.674 324 409.174 345.5C397.674 366 385.326 378.5 359.5 385C301.5 402.5 189.5 411.5 107 386C76.7875 376.662 60.8475 370 48.1738 327C34.1738 279.5 29.0657 250.835 31.5 200L72.1738 268.5C82.1738 319 90.5 335 113 347C177 372 280.5 372 351 346.5C388 329 390.5 270 394.5 235.5C396.138 206.317 395.197 189.264 393.543 159.276Z" fill="#FF5E00"/>
<path d="M114.5 329.5C102.102 321.871 92.8875 301.053 87.2899 272.686C86.775 270.076 87.6428 267.388 89.5492 265.533L160.5 196.5L228.415 229.501C230.274 230.404 232.497 230.07 234.009 228.661L316.812 151.472C318.639 149.769 321.443 149.675 323.379 151.252L378.684 196.299C380.782 198.008 382.005 200.579 381.982 203.285C381.465 266.298 369.503 316.787 347.5 329.5C302 359 162 358.731 114.5 329.5Z" fill="#FF5F02"/>
</g>
<path d="M902.573 103.033V226H886.273V103.033H902.573ZM954.09 158.351V171.695H899.026V158.351H954.09ZM962.451 103.033V116.377H899.026V103.033H962.451ZM1033.56 204.886V134.62H1049.27V226H1034.32L1033.56 204.886ZM1036.52 185.63L1043.02 185.462C1043.02 191.542 1042.37 197.173 1041.08 202.353C1039.84 207.476 1037.81 211.924 1035 215.696C1032.18 219.469 1028.5 222.425 1023.93 224.564C1019.37 226.647 1013.83 227.689 1007.3 227.689C1002.85 227.689 998.767 227.042 995.051 225.747C991.391 224.452 988.238 222.453 985.592 219.75C982.946 217.048 980.891 213.529 979.427 209.193C978.019 204.858 977.316 199.65 977.316 193.569V134.62H992.94V193.738C992.94 197.848 993.39 201.255 994.291 203.957C995.248 206.603 996.515 208.715 998.091 210.291C999.724 211.812 1001.53 212.881 1003.5 213.501C1005.52 214.12 1007.61 214.43 1009.75 214.43C1016.39 214.43 1021.65 213.163 1025.54 210.629C1029.42 208.039 1032.21 204.577 1033.9 200.241C1035.65 195.85 1036.52 190.979 1036.52 185.63ZM1126.29 201.761C1126.29 199.509 1125.79 197.426 1124.77 195.512C1123.82 193.541 1121.82 191.768 1118.78 190.191C1115.79 188.558 1111.29 187.151 1105.26 185.968C1100.2 184.899 1095.61 183.632 1091.5 182.168C1087.44 180.704 1083.98 178.93 1081.11 176.847C1078.3 174.764 1076.13 172.315 1074.61 169.5C1073.09 166.684 1072.33 163.391 1072.33 159.618C1072.33 156.015 1073.12 152.609 1074.69 149.399C1076.33 146.19 1078.61 143.347 1081.53 140.869C1084.52 138.392 1088.09 136.449 1092.26 135.042C1096.43 133.634 1101.07 132.93 1106.19 132.93C1113.51 132.93 1119.76 134.225 1124.94 136.815C1130.12 139.405 1134.09 142.868 1136.85 147.203C1139.61 151.482 1140.99 156.24 1140.99 161.476H1125.37C1125.37 158.943 1124.61 156.493 1123.08 154.129C1121.62 151.708 1119.45 149.709 1116.58 148.132C1113.77 146.556 1110.3 145.768 1106.19 145.768C1101.86 145.768 1098.34 146.443 1095.64 147.795C1092.99 149.09 1091.05 150.751 1089.81 152.777C1088.63 154.804 1088.04 156.944 1088.04 159.196C1088.04 160.885 1088.32 162.405 1088.88 163.757C1089.5 165.052 1090.57 166.262 1092.09 167.388C1093.61 168.458 1095.75 169.471 1098.51 170.429C1101.27 171.386 1104.79 172.343 1109.07 173.3C1116.55 174.989 1122.72 177.016 1127.56 179.381C1132.4 181.746 1136.01 184.645 1138.37 188.08C1140.74 191.514 1141.92 195.681 1141.92 200.579C1141.92 204.577 1141.07 208.236 1139.38 211.558C1137.75 214.88 1135.36 217.752 1132.21 220.173C1129.11 222.537 1125.39 224.395 1121.06 225.747C1116.78 227.042 1111.97 227.689 1106.62 227.689C1098.56 227.689 1091.75 226.253 1086.18 223.382C1080.6 220.51 1076.38 216.794 1073.51 212.234C1070.64 207.673 1069.2 202.859 1069.2 197.792H1084.91C1085.14 202.071 1086.38 205.477 1088.63 208.011C1090.88 210.488 1093.64 212.262 1096.9 213.332C1100.17 214.345 1103.41 214.852 1106.62 214.852C1110.9 214.852 1114.47 214.289 1117.34 213.163C1120.27 212.037 1122.49 210.488 1124.01 208.518C1125.53 206.547 1126.29 204.295 1126.29 201.761ZM1200.36 227.689C1194 227.689 1188.23 226.619 1183.05 224.48C1177.92 222.284 1173.5 219.215 1169.79 215.274C1166.13 211.333 1163.31 206.66 1161.34 201.255C1159.37 195.85 1158.39 189.938 1158.39 183.519V179.972C1158.39 172.54 1159.49 165.924 1161.68 160.125C1163.88 154.269 1166.86 149.315 1170.63 145.261C1174.41 141.207 1178.68 138.139 1183.47 136.055C1188.26 133.972 1193.21 132.93 1198.33 132.93C1204.87 132.93 1210.5 134.057 1215.23 136.309C1220.01 138.561 1223.92 141.714 1226.96 145.768C1230.01 149.765 1232.26 154.495 1233.72 159.956C1235.19 165.361 1235.92 171.273 1235.92 177.692V184.701H1167.68V171.949H1220.29V170.766C1220.07 166.713 1219.22 162.771 1217.76 158.943C1216.35 155.114 1214.1 151.961 1211 149.484C1207.91 147.006 1203.68 145.768 1198.33 145.768C1194.79 145.768 1191.52 146.528 1188.54 148.048C1185.55 149.512 1182.99 151.708 1180.85 154.635C1178.71 157.563 1177.05 161.138 1175.87 165.361C1174.69 169.584 1174.1 174.454 1174.1 179.972V183.519C1174.1 187.854 1174.69 191.936 1175.87 195.765C1177.11 199.537 1178.88 202.859 1181.19 205.731C1183.55 208.602 1186.4 210.854 1189.72 212.487C1193.1 214.12 1196.93 214.936 1201.21 214.936C1206.72 214.936 1211.4 213.81 1215.23 211.558C1219.05 209.306 1222.4 206.294 1225.28 202.521L1234.73 210.038C1232.76 213.022 1230.26 215.865 1227.22 218.568C1224.18 221.271 1220.43 223.466 1215.99 225.155C1211.59 226.845 1206.39 227.689 1200.36 227.689Z" fill="#FF5E00"/>
<path d="M492.266 103.089H532.955C542.185 103.089 549.98 104.496 556.339 107.31C562.755 110.124 567.623 114.288 570.943 119.803C574.32 125.262 576.008 131.988 576.008 139.979C576.008 145.607 574.854 150.756 572.547 155.427C570.296 160.042 567.032 163.982 562.755 167.246C558.534 170.454 553.469 172.845 547.56 174.421L543.001 176.194H504.76L504.591 162.941H533.462C539.315 162.941 544.183 161.928 548.066 159.902C551.949 157.819 554.876 155.033 556.845 151.544C558.815 148.055 559.8 144.2 559.8 139.979C559.8 135.252 558.871 131.115 557.014 127.57C555.157 124.024 552.231 121.295 548.235 119.381C544.295 117.412 539.202 116.427 532.955 116.427H508.559V226H492.266V103.089ZM564.105 226L534.222 170.285L551.189 170.2L581.495 224.987V226H564.105ZM650.295 210.383V163.363C650.295 159.761 649.563 156.637 648.1 153.992C646.693 151.291 644.555 149.209 641.684 147.745C638.814 146.282 635.269 145.551 631.048 145.551C627.108 145.551 623.647 146.226 620.665 147.577C617.738 148.927 615.431 150.7 613.742 152.895C612.11 155.09 611.294 157.453 611.294 159.986H595.677C595.677 156.722 596.521 153.486 598.21 150.278C599.898 147.07 602.318 144.172 605.47 141.583C608.677 138.938 612.504 136.856 616.95 135.336C621.453 133.76 626.461 132.973 631.977 132.973C638.617 132.973 644.47 134.098 649.535 136.349C654.657 138.6 658.652 142.005 661.522 146.564C664.449 151.066 665.912 156.722 665.912 163.531V206.078C665.912 209.117 666.165 212.353 666.672 215.786C667.235 219.219 668.051 222.173 669.12 224.649V226H652.827C652.04 224.199 651.421 221.807 650.97 218.825C650.52 215.786 650.295 212.972 650.295 210.383ZM652.996 170.622L653.165 181.597H637.379C632.933 181.597 628.966 181.962 625.476 182.694C621.987 183.369 619.061 184.411 616.697 185.818C614.333 187.224 612.532 188.997 611.294 191.136C610.056 193.218 609.437 195.666 609.437 198.48C609.437 201.35 610.084 203.967 611.379 206.331C612.673 208.695 614.615 210.58 617.204 211.987C619.849 213.337 623.085 214.013 626.911 214.013C631.695 214.013 635.916 213 639.574 210.974C643.232 208.948 646.13 206.472 648.269 203.545C650.464 200.619 651.646 197.777 651.814 195.019L658.483 202.532C658.089 204.896 657.02 207.513 655.276 210.383C653.531 213.253 651.195 216.011 648.269 218.656C645.399 221.245 641.966 223.411 637.97 225.156C634.031 226.844 629.585 227.688 624.632 227.688C618.442 227.688 613.011 226.478 608.34 224.058C603.725 221.638 600.123 218.402 597.534 214.35C595.002 210.242 593.736 205.656 593.736 200.591C593.736 195.694 594.692 191.389 596.606 187.675C598.519 183.904 601.277 180.781 604.879 178.304C608.48 175.772 612.814 173.858 617.879 172.564C622.944 171.27 628.6 170.622 634.847 170.622H652.996ZM706.095 154.161V226H690.477V134.661H705.25L706.095 154.161ZM702.38 176.869L695.88 176.616C695.936 170.369 696.865 164.601 698.666 159.311C700.467 153.964 702.999 149.321 706.263 145.382C709.528 141.442 713.411 138.403 717.913 136.265C722.471 134.07 727.508 132.973 733.024 132.973C737.526 132.973 741.578 133.592 745.18 134.83C748.781 136.012 751.849 137.925 754.381 140.57C756.97 143.215 758.94 146.648 760.29 150.869C761.641 155.033 762.316 160.127 762.316 166.148V226H746.615V165.98C746.615 161.196 745.911 157.369 744.504 154.499C743.097 151.572 741.043 149.462 738.342 148.168C735.64 146.817 732.32 146.142 728.381 146.142C724.497 146.142 720.952 146.958 717.744 148.59C714.593 150.222 711.863 152.473 709.556 155.343C707.305 158.213 705.532 161.505 704.237 165.22C702.999 168.878 702.38 172.761 702.38 176.869ZM801.739 96.3356V226H786.037V96.3356H801.739ZM857.539 134.661L817.694 177.291L795.408 200.422L794.141 183.792L810.096 164.713L838.46 134.661H857.539ZM843.272 226L810.687 182.441L818.791 168.512L861.675 226H843.272Z" fill="#00A0FF"/>
<g clip-path="url(#clip1_901_14)">
<path d="M494.548 320.648V260.957H511.397C516.59 260.957 521.182 262.105 525.172 264.4C529.163 266.696 532.237 269.962 534.397 274.199C536.583 278.435 537.69 283.3 537.717 288.794V292.606C537.717 298.237 536.624 303.17 534.438 307.406C532.278 311.642 529.176 314.895 525.131 317.163C521.114 319.432 516.426 320.593 511.069 320.648H494.548ZM502.419 267.434V314.212H510.7C516.768 314.212 521.483 312.326 524.844 308.554C528.233 304.782 529.928 299.412 529.928 292.442V288.958C529.928 282.179 528.329 276.918 525.131 273.174C521.961 269.402 517.451 267.489 511.602 267.434H502.419ZM556.699 320.648H549.114V276.29H556.699V320.648ZM548.499 264.523C548.499 263.294 548.868 262.255 549.606 261.408C550.372 260.56 551.492 260.137 552.968 260.137C554.444 260.137 555.565 260.56 556.33 261.408C557.095 262.255 557.478 263.294 557.478 264.523C557.478 265.753 557.095 266.778 556.33 267.598C555.565 268.418 554.444 268.828 552.968 268.828C551.492 268.828 550.372 268.418 549.606 267.598C548.868 266.778 548.499 265.753 548.499 264.523ZM567.071 298.1C567.071 291.185 568.67 285.691 571.868 281.619C575.065 277.519 579.302 275.47 584.577 275.47C589.988 275.47 594.211 277.383 597.245 281.209L597.614 276.29H604.542V319.582C604.542 325.322 602.834 329.845 599.417 333.152C596.028 336.459 591.464 338.113 585.725 338.113C582.527 338.113 579.397 337.429 576.336 336.063C573.275 334.696 570.938 332.824 569.326 330.446L573.262 325.896C576.514 329.913 580.491 331.922 585.192 331.922C588.881 331.922 591.751 330.884 593.801 328.806C595.878 326.729 596.917 323.805 596.917 320.033V316.22C593.883 319.719 589.742 321.468 584.495 321.468C579.302 321.468 575.093 319.377 571.868 315.196C568.67 311.014 567.071 305.315 567.071 298.1ZM574.696 298.961C574.696 303.962 575.721 307.898 577.771 310.768C579.821 313.61 582.691 315.032 586.381 315.032C591.163 315.032 594.676 312.859 596.917 308.513V288.261C594.594 284.024 591.109 281.906 586.462 281.906C582.773 281.906 579.889 283.341 577.812 286.211C575.735 289.081 574.696 293.331 574.696 298.961ZM624.262 320.648H616.677V276.29H624.262V320.648ZM616.062 264.523C616.062 263.294 616.431 262.255 617.169 261.408C617.934 260.56 619.055 260.137 620.531 260.137C622.007 260.137 623.127 260.56 623.893 261.408C624.658 262.255 625.041 263.294 625.041 264.523C625.041 265.753 624.658 266.778 623.893 267.598C623.127 268.418 622.007 268.828 620.531 268.828C619.055 268.828 617.934 268.418 617.169 267.598C616.431 266.778 616.062 265.753 616.062 264.523ZM646.728 265.548V276.29H655.009V282.152H646.728V309.661C646.728 311.437 647.097 312.777 647.835 313.679C648.573 314.553 649.83 314.991 651.606 314.991C652.481 314.991 653.684 314.827 655.214 314.499V320.648C653.219 321.195 651.278 321.468 649.393 321.468C646.004 321.468 643.448 320.443 641.726 318.393C640.004 316.343 639.143 313.433 639.143 309.661V282.152H631.067V276.29H639.143V265.548H646.728ZM691.291 320.648C690.854 319.774 690.499 318.216 690.225 315.974C686.7 319.637 682.491 321.468 677.598 321.468C673.225 321.468 669.631 320.238 666.816 317.778C664.029 315.291 662.635 312.148 662.635 308.349C662.635 303.73 664.384 300.15 667.882 297.608C671.408 295.039 676.355 293.754 682.723 293.754H690.102V290.269C690.102 287.618 689.31 285.514 687.725 283.956C686.139 282.371 683.803 281.578 680.714 281.578C678.008 281.578 675.74 282.261 673.909 283.628C672.078 284.995 671.162 286.648 671.162 288.589H663.537C663.537 286.375 664.315 284.243 665.873 282.193C667.459 280.116 669.59 278.476 672.269 277.273C674.975 276.071 677.94 275.47 681.165 275.47C686.276 275.47 690.28 276.754 693.177 279.323C696.074 281.865 697.578 285.377 697.687 289.859V310.276C697.687 314.348 698.206 317.587 699.245 319.992V320.648H691.291ZM678.705 314.868C681.083 314.868 683.338 314.253 685.47 313.023C687.602 311.793 689.146 310.194 690.102 308.226V299.125H684.158C674.865 299.125 670.219 301.844 670.219 307.283C670.219 309.661 671.012 311.519 672.597 312.859C674.182 314.198 676.218 314.868 678.705 314.868ZM717.816 320.648H710.232V257.677H717.816V320.648ZM762.175 260.957L781.689 309.661L801.204 260.957H811.412V320.648H803.541V297.403L804.279 272.313L784.682 320.648H778.656L759.1 272.436L759.879 297.403V320.648H752.008V260.957H762.175ZM851.507 320.648C851.07 319.774 850.714 318.216 850.441 315.974C846.915 319.637 842.706 321.468 837.814 321.468C833.441 321.468 829.847 320.238 827.032 317.778C824.244 315.291 822.85 312.148 822.85 308.349C822.85 303.73 824.599 300.15 828.098 297.608C831.624 295.039 836.57 293.754 842.939 293.754H850.318V290.269C850.318 287.618 849.525 285.514 847.94 283.956C846.355 282.371 844.018 281.578 840.93 281.578C838.224 281.578 835.956 282.261 834.124 283.628C832.293 284.995 831.378 286.648 831.378 288.589H823.752C823.752 286.375 824.531 284.243 826.089 282.193C827.674 280.116 829.806 278.476 832.484 277.273C835.19 276.071 838.156 275.47 841.381 275.47C846.492 275.47 850.496 276.754 853.393 279.323C856.29 281.865 857.793 285.377 857.903 289.859V310.276C857.903 314.348 858.422 317.587 859.46 319.992V320.648H851.507ZM838.921 314.868C841.299 314.868 843.554 314.253 845.685 313.023C847.817 311.793 849.361 310.194 850.318 308.226V299.125H844.374C835.081 299.125 830.435 301.844 830.435 307.283C830.435 309.661 831.227 311.519 832.812 312.859C834.398 314.198 836.434 314.868 838.921 314.868ZM891.233 283.095C890.085 282.904 888.841 282.808 887.502 282.808C882.528 282.808 879.153 284.926 877.376 289.163V320.648H869.792V276.29H877.171L877.294 281.414C879.781 277.451 883.307 275.47 887.871 275.47C889.347 275.47 890.468 275.661 891.233 276.044V283.095ZM910.624 300.109L905.869 305.069V320.648H898.284V257.677H905.869V295.763L909.927 290.884L923.743 276.29H932.968L915.708 294.82L934.977 320.648H926.08L910.624 300.109ZM958.386 321.468C952.373 321.468 947.481 319.5 943.709 315.564C939.937 311.601 938.051 306.313 938.051 299.699V298.305C938.051 293.905 938.885 289.982 940.552 286.539C942.247 283.068 944.597 280.362 947.604 278.421C950.637 276.454 953.917 275.47 957.443 275.47C963.21 275.47 967.692 277.369 970.89 281.168C974.088 284.967 975.686 290.406 975.686 297.485V300.642H945.636C945.745 305.015 947.016 308.554 949.448 311.26C951.908 313.938 955.024 315.278 958.796 315.278C961.474 315.278 963.743 314.731 965.601 313.638C967.46 312.544 969.086 311.096 970.48 309.292L975.112 312.9C971.395 318.612 965.82 321.468 958.386 321.468ZM957.443 281.701C954.382 281.701 951.813 282.822 949.735 285.063C947.658 287.277 946.374 290.392 945.882 294.41H968.102V293.836C967.883 289.982 966.845 287.003 964.986 284.899C963.128 282.767 960.613 281.701 957.443 281.701ZM994.791 265.548V276.29H1003.07V282.152H994.791V309.661C994.791 311.437 995.16 312.777 995.898 313.679C996.636 314.553 997.893 314.991 999.67 314.991C1000.54 314.991 1001.75 314.827 1003.28 314.499V320.648C1001.28 321.195 999.342 321.468 997.456 321.468C994.067 321.468 991.511 320.443 989.789 318.393C988.067 316.343 987.207 313.433 987.207 309.661V282.152H979.13V276.29H987.207V265.548H994.791ZM1020.21 320.648H1012.62V276.29H1020.21V320.648ZM1012.01 264.523C1012.01 263.294 1012.38 262.255 1013.12 261.408C1013.88 260.56 1015 260.137 1016.48 260.137C1017.95 260.137 1019.07 260.56 1019.84 261.408C1020.61 262.255 1020.99 263.294 1020.99 264.523C1020.99 265.753 1020.61 266.778 1019.84 267.598C1019.07 268.418 1017.95 268.828 1016.48 268.828C1015 268.828 1013.88 268.418 1013.12 267.598C1012.38 266.778 1012.01 265.753 1012.01 264.523ZM1039.56 276.29L1039.81 281.865C1043.19 277.601 1047.62 275.47 1053.09 275.47C1062.46 275.47 1067.19 280.758 1067.27 291.335V320.648H1059.69V291.294C1059.66 288.097 1058.92 285.732 1057.48 284.202C1056.05 282.671 1053.83 281.906 1050.79 281.906C1048.33 281.906 1046.17 282.562 1044.32 283.874C1042.46 285.186 1041.01 286.908 1039.97 289.04V320.648H1032.39V276.29H1039.56ZM1076.91 298.1C1076.91 291.185 1078.51 285.691 1081.7 281.619C1084.9 277.519 1089.14 275.47 1094.41 275.47C1099.82 275.47 1104.05 277.383 1107.08 281.209L1107.45 276.29H1114.38V319.582C1114.38 325.322 1112.67 329.845 1109.25 333.152C1105.87 336.459 1101.3 338.113 1095.56 338.113C1092.36 338.113 1089.23 337.429 1086.17 336.063C1083.11 334.696 1080.77 332.824 1079.16 330.446L1083.1 325.896C1086.35 329.913 1090.33 331.922 1095.03 331.922C1098.72 331.922 1101.59 330.884 1103.64 328.806C1105.71 326.729 1106.75 323.805 1106.75 320.033V316.22C1103.72 319.719 1099.58 321.468 1094.33 321.468C1089.14 321.468 1084.93 319.377 1081.7 315.196C1078.51 311.014 1076.91 305.315 1076.91 298.1ZM1084.53 298.961C1084.53 303.962 1085.56 307.898 1087.61 310.768C1089.66 313.61 1092.53 315.032 1096.22 315.032C1101 315.032 1104.51 312.859 1106.75 308.513V288.261C1104.43 284.024 1100.95 281.906 1096.3 281.906C1092.61 281.906 1089.73 283.341 1087.65 286.211C1085.57 289.081 1084.53 293.331 1084.53 298.961Z" fill="#737373"/>
</g>
<defs>
<clipPath id="clip0_901_14">
<rect width="464" height="402.098" fill="white"/>
</clipPath>
<clipPath id="clip1_901_14">
<rect width="626" height="81" fill="white" transform="translate(494 260)"/>
</clipPath>
</defs>
</svg>
