<svg width="1250" height="403" viewBox="0 0 1250 403" fill="none" xmlns="http://www.w3.org/2000/svg">
<g clip-path="url(#clip0_901_15)">
<path d="M68 165L67 237.5C45.9885 205.738 10.1734 142.937 0.62301 120.965C0.326319 120.283 0.875106 119.564 1.61741 119.618L27.5 121.5C36 122 37.4836 121 38.5 112.5C41.1905 90 46 76.5 54.5 55C66 34.5 79 25 104.5 17C161.5 -1.5 274.5 -10.5 357 17C387 27 402.125 33.295 415.5 73.5C429.5 121 433.434 149.665 431 200.5L391.5 132C381.5 81.5 372.5 67 350 55C270 26.5 183 29.5 112.5 55C79 66 71 130.5 68 165Z" fill="white"/>
<path d="M81 187V240.323L90.5 236L156.5 170L222.493 203.461C225.498 204.985 229.136 204.462 231.59 202.154L319.5 119.5C343 138.5 369.5 164.5 380.5 167.5C380 152.5 378.035 143.564 375.5 128C367.03 86.7635 356.121 71.5602 323 62C276 46 184.5 47.5 139 62C96.4764 69.9757 87 109 81 187Z" fill="white"/>
<path d="M393.543 159.276L393.5 158.5C414.526 190.284 453.724 259.368 463.392 281.571C463.686 282.246 463.15 282.954 462.415 282.915L436 281.5C427.5 281 425.516 282.5 424.5 291C421.809 313.5 417.674 324 409.174 345.5C397.674 366 385.326 378.5 359.5 385C301.5 402.5 189.5 411.5 107 386C76.7875 376.662 60.8475 370 48.1738 327C34.1738 279.5 29.0657 250.835 31.5 200L72.1738 268.5C82.1738 319 90.5 335 113 347C177 372 280.5 372 351 346.5C388 329 390.5 270 394.5 235.5C396.138 206.317 395.197 189.264 393.543 159.276Z" fill="white"/>
<path d="M114.5 329.5C102.102 321.871 92.8875 301.053 87.2899 272.686C86.775 270.076 87.6428 267.388 89.5492 265.533L160.5 196.5L228.415 229.501C230.274 230.404 232.497 230.07 234.009 228.661L316.812 151.472C318.639 149.769 321.443 149.675 323.379 151.252L378.684 196.299C380.782 198.008 382.005 200.579 381.982 203.285C381.465 266.298 369.503 316.787 347.5 329.5C302 359 162 358.731 114.5 329.5Z" fill="white"/>
</g>
<path d="M902.573 103.033V226H886.273V103.033H902.573ZM954.09 158.351V171.695H899.026V158.351H954.09ZM962.451 103.033V116.377H899.026V103.033H962.451ZM1033.56 204.886V134.62H1049.27V226H1034.32L1033.56 204.886ZM1036.52 185.63L1043.02 185.462C1043.02 191.542 1042.37 197.173 1041.08 202.353C1039.84 207.476 1037.81 211.924 1035 215.696C1032.18 219.469 1028.5 222.425 1023.93 224.564C1019.37 226.647 1013.83 227.689 1007.3 227.689C1002.85 227.689 998.767 227.042 995.051 225.747C991.391 224.452 988.238 222.453 985.592 219.75C982.946 217.048 980.891 213.529 979.427 209.193C978.019 204.858 977.316 199.65 977.316 193.569V134.62H992.94V193.738C992.94 197.848 993.39 201.255 994.291 203.957C995.248 206.603 996.515 208.715 998.091 210.291C999.724 211.812 1001.53 212.881 1003.5 213.501C1005.52 214.12 1007.61 214.43 1009.75 214.43C1016.39 214.43 1021.65 213.163 1025.54 210.629C1029.42 208.039 1032.21 204.577 1033.9 200.241C1035.65 195.85 1036.52 190.979 1036.52 185.63ZM1126.29 201.761C1126.29 199.509 1125.79 197.426 1124.77 195.512C1123.82 193.541 1121.82 191.768 1118.78 190.191C1115.79 188.558 1111.29 187.151 1105.26 185.968C1100.2 184.899 1095.61 183.632 1091.5 182.168C1087.44 180.704 1083.98 178.93 1081.11 176.847C1078.3 174.764 1076.13 172.315 1074.61 169.5C1073.09 166.684 1072.33 163.391 1072.33 159.618C1072.33 156.015 1073.12 152.609 1074.69 149.399C1076.33 146.19 1078.61 143.347 1081.53 140.869C1084.52 138.392 1088.09 136.449 1092.26 135.042C1096.43 133.634 1101.07 132.93 1106.19 132.93C1113.51 132.93 1119.76 134.225 1124.94 136.815C1130.12 139.405 1134.09 142.868 1136.85 147.203C1139.61 151.482 1140.99 156.24 1140.99 161.476H1125.37C1125.37 158.943 1124.61 156.493 1123.08 154.129C1121.62 151.708 1119.45 149.709 1116.58 148.132C1113.77 146.556 1110.3 145.768 1106.19 145.768C1101.86 145.768 1098.34 146.443 1095.64 147.795C1092.99 149.09 1091.05 150.751 1089.81 152.777C1088.63 154.804 1088.04 156.944 1088.04 159.196C1088.04 160.885 1088.32 162.405 1088.88 163.757C1089.5 165.052 1090.57 166.262 1092.09 167.388C1093.61 168.458 1095.75 169.471 1098.51 170.429C1101.27 171.386 1104.79 172.343 1109.07 173.3C1116.55 174.989 1122.72 177.016 1127.56 179.381C1132.4 181.746 1136.01 184.645 1138.37 188.08C1140.74 191.514 1141.92 195.681 1141.92 200.579C1141.92 204.577 1141.07 208.236 1139.38 211.558C1137.75 214.88 1135.36 217.752 1132.21 220.173C1129.11 222.537 1125.39 224.395 1121.06 225.747C1116.78 227.042 1111.97 227.689 1106.62 227.689C1098.56 227.689 1091.75 226.253 1086.18 223.382C1080.6 220.51 1076.38 216.794 1073.51 212.234C1070.64 207.673 1069.2 202.859 1069.2 197.792H1084.91C1085.14 202.071 1086.38 205.477 1088.63 208.011C1090.88 210.488 1093.64 212.262 1096.9 213.332C1100.17 214.345 1103.41 214.852 1106.62 214.852C1110.9 214.852 1114.47 214.289 1117.34 213.163C1120.27 212.037 1122.49 210.488 1124.01 208.518C1125.53 206.547 1126.29 204.295 1126.29 201.761ZM1200.36 227.689C1194 227.689 1188.23 226.619 1183.05 224.48C1177.92 222.284 1173.5 219.215 1169.79 215.274C1166.13 211.333 1163.31 206.66 1161.34 201.255C1159.37 195.85 1158.39 189.938 1158.39 183.519V179.972C1158.39 172.54 1159.49 165.924 1161.68 160.125C1163.88 154.269 1166.86 149.315 1170.63 145.261C1174.41 141.207 1178.68 138.139 1183.47 136.055C1188.26 133.972 1193.21 132.93 1198.33 132.93C1204.87 132.93 1210.5 134.057 1215.23 136.309C1220.01 138.561 1223.92 141.714 1226.96 145.768C1230.01 149.765 1232.26 154.495 1233.72 159.956C1235.19 165.361 1235.92 171.273 1235.92 177.692V184.701H1167.68V171.949H1220.29V170.766C1220.07 166.713 1219.22 162.771 1217.76 158.943C1216.35 155.114 1214.1 151.961 1211 149.484C1207.91 147.006 1203.68 145.768 1198.33 145.768C1194.79 145.768 1191.52 146.528 1188.54 148.048C1185.55 149.512 1182.99 151.708 1180.85 154.635C1178.71 157.563 1177.05 161.138 1175.87 165.361C1174.69 169.584 1174.1 174.454 1174.1 179.972V183.519C1174.1 187.854 1174.69 191.936 1175.87 195.765C1177.11 199.537 1178.88 202.859 1181.19 205.731C1183.55 208.602 1186.4 210.854 1189.72 212.487C1193.1 214.12 1196.93 214.936 1201.21 214.936C1206.72 214.936 1211.4 213.81 1215.23 211.558C1219.05 209.306 1222.4 206.294 1225.28 202.521L1234.73 210.038C1232.76 213.022 1230.26 215.865 1227.22 218.568C1224.18 221.271 1220.43 223.466 1215.99 225.155C1211.59 226.845 1206.39 227.689 1200.36 227.689Z" fill="white"/>
<path d="M492.266 103.089H532.955C542.185 103.089 549.98 104.496 556.339 107.31C562.755 110.124 567.623 114.288 570.943 119.803C574.32 125.262 576.008 131.988 576.008 139.979C576.008 145.607 574.854 150.756 572.547 155.427C570.296 160.042 567.032 163.982 562.755 167.246C558.534 170.454 553.469 172.845 547.56 174.421L543.001 176.194H504.76L504.591 162.941H533.462C539.315 162.941 544.183 161.928 548.066 159.902C551.949 157.819 554.876 155.033 556.845 151.544C558.815 148.055 559.8 144.2 559.8 139.979C559.8 135.252 558.871 131.115 557.014 127.57C555.157 124.024 552.231 121.295 548.235 119.381C544.295 117.412 539.202 116.427 532.955 116.427H508.559V226H492.266V103.089ZM564.105 226L534.222 170.285L551.189 170.2L581.495 224.987V226H564.105ZM650.295 210.383V163.363C650.295 159.761 649.563 156.637 648.1 153.992C646.693 151.291 644.555 149.209 641.684 147.745C638.814 146.282 635.269 145.551 631.048 145.551C627.108 145.551 623.647 146.226 620.665 147.577C617.738 148.927 615.431 150.7 613.742 152.895C612.11 155.09 611.294 157.453 611.294 159.986H595.677C595.677 156.722 596.521 153.486 598.21 150.278C599.898 147.07 602.318 144.172 605.47 141.583C608.677 138.938 612.504 136.856 616.95 135.336C621.453 133.76 626.461 132.973 631.977 132.973C638.617 132.973 644.47 134.098 649.535 136.349C654.657 138.6 658.652 142.005 661.522 146.564C664.449 151.066 665.912 156.722 665.912 163.531V206.078C665.912 209.117 666.165 212.353 666.672 215.786C667.235 219.219 668.051 222.173 669.12 224.649V226H652.827C652.04 224.199 651.421 221.807 650.97 218.825C650.52 215.786 650.295 212.972 650.295 210.383ZM652.996 170.622L653.165 181.597H637.379C632.933 181.597 628.966 181.962 625.476 182.694C621.987 183.369 619.061 184.411 616.697 185.818C614.333 187.224 612.532 188.997 611.294 191.136C610.056 193.218 609.437 195.666 609.437 198.48C609.437 201.35 610.084 203.967 611.379 206.331C612.673 208.695 614.615 210.58 617.204 211.987C619.849 213.337 623.085 214.013 626.911 214.013C631.695 214.013 635.916 213 639.574 210.974C643.232 208.948 646.13 206.472 648.269 203.545C650.464 200.619 651.646 197.777 651.814 195.019L658.483 202.532C658.089 204.896 657.02 207.513 655.276 210.383C653.531 213.253 651.195 216.011 648.269 218.656C645.399 221.245 641.966 223.411 637.97 225.156C634.031 226.844 629.585 227.688 624.632 227.688C618.442 227.688 613.011 226.478 608.34 224.058C603.725 221.638 600.123 218.402 597.534 214.35C595.002 210.242 593.736 205.656 593.736 200.591C593.736 195.694 594.692 191.389 596.606 187.675C598.519 183.904 601.277 180.781 604.879 178.304C608.48 175.772 612.814 173.858 617.879 172.564C622.944 171.27 628.6 170.622 634.847 170.622H652.996ZM706.095 154.161V226H690.477V134.661H705.25L706.095 154.161ZM702.38 176.869L695.88 176.616C695.936 170.369 696.865 164.601 698.666 159.311C700.467 153.964 702.999 149.321 706.263 145.382C709.528 141.442 713.411 138.403 717.913 136.265C722.471 134.07 727.508 132.973 733.024 132.973C737.526 132.973 741.578 133.592 745.18 134.83C748.781 136.012 751.849 137.925 754.381 140.57C756.97 143.215 758.94 146.648 760.29 150.869C761.641 155.033 762.316 160.127 762.316 166.148V226H746.615V165.98C746.615 161.196 745.911 157.369 744.504 154.499C743.097 151.572 741.043 149.462 738.342 148.168C735.64 146.817 732.32 146.142 728.381 146.142C724.497 146.142 720.952 146.958 717.744 148.59C714.593 150.222 711.863 152.473 709.556 155.343C707.305 158.213 705.532 161.505 704.237 165.22C702.999 168.878 702.38 172.761 702.38 176.869ZM801.739 96.3356V226H786.037V96.3356H801.739ZM857.539 134.661L817.694 177.291L795.408 200.422L794.141 183.792L810.096 164.713L838.46 134.661H857.539ZM843.272 226L810.687 182.441L818.791 168.512L861.675 226H843.272Z" fill="white"/>
<g clip-path="url(#clip1_901_15)">
<path d="M509.081 329H496.618L496.7 322.563H509.081C513.345 322.563 516.898 321.675 519.74 319.899C522.583 318.095 524.715 315.58 526.136 312.355C527.584 309.103 528.309 305.304 528.309 300.958V297.309C528.309 293.893 527.899 290.859 527.079 288.208C526.259 285.53 525.056 283.275 523.471 281.444C521.886 279.585 519.945 278.178 517.65 277.221C515.381 276.264 512.771 275.786 509.819 275.786H496.372V269.309H509.819C513.728 269.309 517.294 269.965 520.519 271.276C523.744 272.561 526.519 274.433 528.842 276.893C531.192 279.326 532.996 282.277 534.253 285.748C535.511 289.192 536.139 293.073 536.139 297.391V300.958C536.139 305.277 535.511 309.171 534.253 312.642C532.996 316.086 531.179 319.024 528.801 321.457C526.45 323.889 523.608 325.761 520.273 327.073C516.966 328.358 513.236 329 509.081 329ZM500.841 269.309V329H492.928V269.309H500.841ZM555.121 284.641V329H547.495V284.641H555.121ZM546.921 272.875C546.921 271.645 547.29 270.607 548.028 269.76C548.793 268.912 549.914 268.489 551.39 268.489C552.838 268.489 553.945 268.912 554.711 269.76C555.503 270.607 555.9 271.645 555.9 272.875C555.9 274.051 555.503 275.062 554.711 275.909C553.945 276.729 552.838 277.139 551.39 277.139C549.914 277.139 548.793 276.729 548.028 275.909C547.29 275.062 546.921 274.051 546.921 272.875ZM596.035 284.641H602.923V328.057C602.923 331.965 602.13 335.3 600.545 338.06C598.96 340.821 596.746 342.912 593.904 344.333C591.089 345.781 587.836 346.506 584.146 346.506C582.616 346.506 580.812 346.26 578.735 345.768C576.685 345.303 574.662 344.497 572.667 343.349C570.699 342.228 569.046 340.711 567.707 338.798L571.683 334.289C573.542 336.53 575.482 338.088 577.505 338.962C579.555 339.837 581.577 340.274 583.572 340.274C585.978 340.274 588.055 339.823 589.804 338.921C591.553 338.019 592.906 336.68 593.863 334.904C594.847 333.154 595.339 330.995 595.339 328.426V294.399L596.035 284.641ZM565.493 307.313V306.452C565.493 303.063 565.889 299.988 566.682 297.227C567.502 294.44 568.663 292.048 570.166 290.053C571.697 288.058 573.542 286.527 575.701 285.461C577.86 284.368 580.293 283.821 582.998 283.821C585.786 283.821 588.219 284.313 590.296 285.297C592.4 286.254 594.177 287.662 595.626 289.52C597.101 291.351 598.263 293.565 599.11 296.162C599.958 298.758 600.545 301.696 600.873 304.976V308.748C600.572 312 599.985 314.924 599.11 317.521C598.263 320.117 597.101 322.331 595.626 324.162C594.177 325.994 592.4 327.401 590.296 328.385C588.191 329.342 585.732 329.82 582.917 329.82C580.265 329.82 577.86 329.26 575.701 328.139C573.569 327.018 571.738 325.447 570.207 323.424C568.677 321.402 567.502 319.024 566.682 316.291C565.889 313.531 565.493 310.538 565.493 307.313ZM573.077 306.452V307.313C573.077 309.527 573.296 311.604 573.733 313.544C574.198 315.485 574.895 317.193 575.824 318.669C576.781 320.145 577.997 321.306 579.473 322.154C580.949 322.973 582.712 323.383 584.761 323.383C587.276 323.383 589.353 322.85 590.993 321.785C592.633 320.719 593.931 319.311 594.888 317.562C595.872 315.813 596.637 313.913 597.183 311.863V301.983C596.883 300.48 596.418 299.031 595.79 297.637C595.188 296.216 594.396 294.959 593.412 293.866C592.455 292.745 591.266 291.857 589.845 291.201C588.424 290.545 586.757 290.217 584.843 290.217C582.766 290.217 580.976 290.654 579.473 291.529C577.997 292.376 576.781 293.551 575.824 295.055C574.895 296.531 574.198 298.252 573.733 300.22C573.296 302.161 573.077 304.238 573.077 306.452ZM622.683 284.641V329H615.058V284.641H622.683ZM614.484 272.875C614.484 271.645 614.853 270.607 615.591 269.76C616.356 268.912 617.477 268.489 618.953 268.489C620.401 268.489 621.508 268.912 622.273 269.76C623.066 270.607 623.462 271.645 623.462 272.875C623.462 274.051 623.066 275.062 622.273 275.909C621.508 276.729 620.401 277.139 618.953 277.139C617.477 277.139 616.356 276.729 615.591 275.909C614.853 275.062 614.484 274.051 614.484 272.875ZM653.431 284.641V290.463H629.448V284.641H653.431ZM637.565 273.859H645.15V318.013C645.15 319.516 645.382 320.65 645.847 321.416C646.311 322.181 646.913 322.686 647.65 322.932C648.388 323.178 649.181 323.301 650.028 323.301C650.657 323.301 651.313 323.247 651.996 323.137C652.707 323.001 653.24 322.891 653.595 322.809L653.636 329C653.035 329.191 652.242 329.369 651.258 329.533C650.302 329.724 649.14 329.82 647.773 329.82C645.915 329.82 644.207 329.451 642.649 328.713C641.091 327.975 639.847 326.745 638.918 325.023C638.016 323.274 637.565 320.924 637.565 317.972V273.859ZM688.483 321.416V298.58C688.483 296.831 688.128 295.314 687.417 294.03C686.734 292.718 685.696 291.707 684.302 290.996C682.908 290.285 681.186 289.93 679.136 289.93C677.223 289.93 675.542 290.258 674.093 290.914C672.672 291.57 671.552 292.431 670.732 293.497C669.939 294.563 669.543 295.711 669.543 296.94H661.958C661.958 295.355 662.368 293.784 663.188 292.226C664.008 290.668 665.183 289.26 666.714 288.003C668.272 286.719 670.13 285.707 672.29 284.969C674.476 284.204 676.909 283.821 679.587 283.821C682.812 283.821 685.655 284.368 688.114 285.461C690.602 286.555 692.542 288.208 693.936 290.422C695.357 292.608 696.068 295.355 696.068 298.662V319.325C696.068 320.801 696.191 322.372 696.437 324.039C696.71 325.707 697.106 327.141 697.626 328.344V329H689.713C689.331 328.125 689.03 326.964 688.811 325.515C688.593 324.039 688.483 322.673 688.483 321.416ZM689.795 302.106L689.877 307.436H682.211C680.052 307.436 678.125 307.613 676.43 307.969C674.736 308.297 673.315 308.802 672.167 309.486C671.019 310.169 670.144 311.03 669.543 312.068C668.942 313.08 668.641 314.268 668.641 315.635C668.641 317.029 668.955 318.3 669.584 319.448C670.212 320.596 671.155 321.511 672.413 322.195C673.697 322.85 675.269 323.178 677.127 323.178C679.45 323.178 681.5 322.686 683.277 321.703C685.053 320.719 686.461 319.516 687.499 318.095C688.565 316.674 689.139 315.293 689.221 313.954L692.46 317.603C692.269 318.751 691.749 320.022 690.902 321.416C690.055 322.809 688.921 324.149 687.499 325.433C686.106 326.691 684.438 327.743 682.498 328.59C680.585 329.41 678.425 329.82 676.02 329.82C673.014 329.82 670.376 329.232 668.108 328.057C665.867 326.882 664.118 325.31 662.86 323.342C661.63 321.347 661.015 319.12 661.015 316.66C661.015 314.282 661.48 312.191 662.409 310.387C663.339 308.556 664.678 307.039 666.427 305.837C668.176 304.607 670.281 303.678 672.741 303.049C675.2 302.42 677.947 302.106 680.981 302.106H689.795ZM716.238 266.029V329H708.613V266.029H716.238ZM752.889 269.309H760.556L780.111 317.972L799.626 269.309H807.333L783.063 329H777.077L752.889 269.309ZM750.389 269.309H757.153L758.26 305.714V329H750.389V269.309ZM803.028 269.309H809.793V329H801.922V305.714L803.028 269.309ZM848.699 321.416V298.58C848.699 296.831 848.344 295.314 847.633 294.03C846.95 292.718 845.911 291.707 844.517 290.996C843.123 290.285 841.402 289.93 839.352 289.93C837.438 289.93 835.758 290.258 834.309 290.914C832.888 291.57 831.767 292.431 830.947 293.497C830.155 294.563 829.758 295.711 829.758 296.94H822.174C822.174 295.355 822.584 293.784 823.404 292.226C824.224 290.668 825.399 289.26 826.93 288.003C828.488 286.719 830.346 285.707 832.505 284.969C834.692 284.204 837.124 283.821 839.803 283.821C843.028 283.821 845.87 284.368 848.33 285.461C850.817 286.555 852.758 288.208 854.152 290.422C855.573 292.608 856.283 295.355 856.283 298.662V319.325C856.283 320.801 856.406 322.372 856.652 324.039C856.926 325.707 857.322 327.141 857.841 328.344V329H849.929C849.546 328.125 849.246 326.964 849.027 325.515C848.808 324.039 848.699 322.673 848.699 321.416ZM850.011 302.106L850.093 307.436H842.426C840.267 307.436 838.34 307.613 836.646 307.969C834.951 308.297 833.53 308.802 832.382 309.486C831.234 310.169 830.36 311.03 829.758 312.068C829.157 313.08 828.856 314.268 828.856 315.635C828.856 317.029 829.171 318.3 829.799 319.448C830.428 320.596 831.371 321.511 832.628 322.195C833.913 322.85 835.484 323.178 837.343 323.178C839.666 323.178 841.716 322.686 843.492 321.703C845.269 320.719 846.676 319.516 847.715 318.095C848.781 316.674 849.355 315.293 849.437 313.954L852.676 317.603C852.484 318.751 851.965 320.022 851.118 321.416C850.27 322.809 849.136 324.149 847.715 325.433C846.321 326.691 844.654 327.743 842.713 328.59C840.8 329.41 838.641 329.82 836.236 329.82C833.229 329.82 830.592 329.232 828.324 328.057C826.082 326.882 824.333 325.31 823.076 323.342C821.846 321.347 821.231 319.12 821.231 316.66C821.231 314.282 821.696 312.191 822.625 310.387C823.554 308.556 824.893 307.039 826.643 305.837C828.392 304.607 830.496 303.678 832.956 303.049C835.416 302.42 838.163 302.106 841.197 302.106H850.011ZM875.798 291.611V329H868.213V284.641H875.593L875.798 291.611ZM889.655 284.395L889.614 291.447C888.985 291.31 888.384 291.228 887.81 291.201C887.263 291.146 886.635 291.119 885.924 291.119C884.175 291.119 882.631 291.392 881.291 291.939C879.952 292.485 878.818 293.251 877.889 294.235C876.959 295.219 876.221 296.394 875.675 297.76C875.156 299.1 874.814 300.576 874.65 302.188L872.518 303.418C872.518 300.74 872.778 298.225 873.297 295.875C873.844 293.524 874.677 291.447 875.798 289.643C876.918 287.812 878.34 286.391 880.062 285.379C881.811 284.341 883.888 283.821 886.293 283.821C886.84 283.821 887.468 283.89 888.179 284.026C888.89 284.136 889.381 284.259 889.655 284.395ZM904.291 266.029V329H896.665V266.029H904.291ZM931.39 284.641L912.039 305.345L901.216 316.578L900.601 308.502L908.349 299.236L922.124 284.641H931.39ZM924.461 329L908.636 307.846L912.572 301.081L933.398 329H924.461ZM956.808 329.82C953.719 329.82 950.918 329.301 948.403 328.262C945.916 327.196 943.771 325.707 941.967 323.793C940.19 321.88 938.824 319.612 937.867 316.988C936.91 314.364 936.432 311.494 936.432 308.379V306.657C936.432 303.049 936.965 299.838 938.031 297.022C939.097 294.18 940.546 291.775 942.377 289.807C944.208 287.839 946.285 286.35 948.608 285.338C950.931 284.327 953.337 283.821 955.824 283.821C958.994 283.821 961.727 284.368 964.023 285.461C966.346 286.555 968.246 288.085 969.722 290.053C971.197 291.994 972.291 294.289 973.001 296.94C973.712 299.564 974.067 302.434 974.067 305.55V308.953H940.942V302.762H966.483V302.188C966.374 300.22 965.964 298.307 965.253 296.449C964.57 294.59 963.476 293.059 961.973 291.857C960.47 290.654 958.42 290.053 955.824 290.053C954.102 290.053 952.517 290.422 951.068 291.16C949.619 291.871 948.376 292.936 947.337 294.358C946.299 295.779 945.492 297.514 944.919 299.564C944.345 301.614 944.058 303.978 944.058 306.657V308.379C944.058 310.483 944.345 312.465 944.919 314.323C945.52 316.154 946.381 317.767 947.501 319.161C948.649 320.555 950.029 321.648 951.642 322.441C953.282 323.233 955.14 323.629 957.218 323.629C959.896 323.629 962.165 323.083 964.023 321.99C965.882 320.896 967.508 319.434 968.902 317.603L973.493 321.252C972.537 322.7 971.32 324.08 969.845 325.392C968.369 326.704 966.551 327.77 964.392 328.59C962.26 329.41 959.732 329.82 956.808 329.82ZM1001.49 284.641V290.463H977.511V284.641H1001.49ZM985.628 273.859H993.213V318.013C993.213 319.516 993.445 320.65 993.91 321.416C994.374 322.181 994.976 322.686 995.714 322.932C996.452 323.178 997.244 323.301 998.091 323.301C998.72 323.301 999.376 323.247 1000.06 323.137C1000.77 323.001 1001.3 322.891 1001.66 322.809L1001.7 329C1001.1 329.191 1000.31 329.369 999.321 329.533C998.365 329.724 997.203 329.82 995.837 329.82C993.978 329.82 992.27 329.451 990.712 328.713C989.154 327.975 987.911 326.745 986.981 325.023C986.079 323.274 985.628 320.924 985.628 317.972V273.859ZM1018.63 284.641V329H1011.01V284.641H1018.63ZM1010.43 272.875C1010.43 271.645 1010.8 270.607 1011.54 269.76C1012.3 268.912 1013.42 268.489 1014.9 268.489C1016.35 268.489 1017.46 268.912 1018.22 269.76C1019.01 270.607 1019.41 271.645 1019.41 272.875C1019.41 274.051 1019.01 275.062 1018.22 275.909C1017.46 276.729 1016.35 277.139 1014.9 277.139C1013.42 277.139 1012.3 276.729 1011.54 275.909C1010.8 275.062 1010.43 274.051 1010.43 272.875ZM1038.39 294.112V329H1030.81V284.641H1037.98L1038.39 294.112ZM1036.59 305.14L1033.43 305.017C1033.46 301.983 1033.91 299.182 1034.78 296.613C1035.66 294.016 1036.89 291.761 1038.47 289.848C1040.06 287.935 1041.94 286.459 1044.13 285.42C1046.34 284.354 1048.79 283.821 1051.47 283.821C1053.66 283.821 1055.62 284.122 1057.37 284.723C1059.12 285.297 1060.61 286.227 1061.84 287.511C1063.1 288.796 1064.06 290.463 1064.71 292.513C1065.37 294.535 1065.7 297.009 1065.7 299.933V329H1058.07V299.851C1058.07 297.528 1057.73 295.67 1057.04 294.276C1056.36 292.854 1055.36 291.83 1054.05 291.201C1052.74 290.545 1051.13 290.217 1049.21 290.217C1047.33 290.217 1045.61 290.613 1044.05 291.406C1042.52 292.199 1041.19 293.292 1040.07 294.686C1038.98 296.08 1038.12 297.678 1037.49 299.482C1036.89 301.259 1036.59 303.145 1036.59 305.14ZM1105.95 284.641H1112.84V328.057C1112.84 331.965 1112.05 335.3 1110.46 338.06C1108.88 340.821 1106.66 342.912 1103.82 344.333C1101.01 345.781 1097.75 346.506 1094.07 346.506C1092.53 346.506 1090.73 346.26 1088.65 345.768C1086.6 345.303 1084.58 344.497 1082.59 343.349C1080.62 342.228 1078.96 340.711 1077.63 338.798L1081.6 334.289C1083.46 336.53 1085.4 338.088 1087.42 338.962C1089.47 339.837 1091.5 340.274 1093.49 340.274C1095.9 340.274 1097.97 339.823 1099.72 338.921C1101.47 338.019 1102.82 336.68 1103.78 334.904C1104.77 333.154 1105.26 330.995 1105.26 328.426V294.399L1105.95 284.641ZM1075.41 307.313V306.452C1075.41 303.063 1075.81 299.988 1076.6 297.227C1077.42 294.44 1078.58 292.048 1080.09 290.053C1081.62 288.058 1083.46 286.527 1085.62 285.461C1087.78 284.368 1090.21 283.821 1092.92 283.821C1095.7 283.821 1098.14 284.313 1100.21 285.297C1102.32 286.254 1104.1 287.662 1105.54 289.52C1107.02 291.351 1108.18 293.565 1109.03 296.162C1109.88 298.758 1110.46 301.696 1110.79 304.976V308.748C1110.49 312 1109.9 314.924 1109.03 317.521C1108.18 320.117 1107.02 322.331 1105.54 324.162C1104.1 325.994 1102.32 327.401 1100.21 328.385C1098.11 329.342 1095.65 329.82 1092.84 329.82C1090.18 329.82 1087.78 329.26 1085.62 328.139C1083.49 327.018 1081.66 325.447 1080.13 323.424C1078.6 321.402 1077.42 319.024 1076.6 316.291C1075.81 313.531 1075.41 310.538 1075.41 307.313ZM1083 306.452V307.313C1083 309.527 1083.21 311.604 1083.65 313.544C1084.12 315.485 1084.81 317.193 1085.74 318.669C1086.7 320.145 1087.92 321.306 1089.39 322.154C1090.87 322.973 1092.63 323.383 1094.68 323.383C1097.19 323.383 1099.27 322.85 1100.91 321.785C1102.55 320.719 1103.85 319.311 1104.81 317.562C1105.79 315.813 1106.56 313.913 1107.1 311.863V301.983C1106.8 300.48 1106.34 299.031 1105.71 297.637C1105.11 296.216 1104.31 294.959 1103.33 293.866C1102.37 292.745 1101.18 291.857 1099.76 291.201C1098.34 290.545 1096.68 290.217 1094.76 290.217C1092.68 290.217 1090.89 290.654 1089.39 291.529C1087.92 292.376 1086.7 293.551 1085.74 295.055C1084.81 296.531 1084.12 298.252 1083.65 300.22C1083.21 302.161 1083 304.238 1083 306.452Z" fill="white"/>
</g>
<defs>
<clipPath id="clip0_901_15">
<rect width="464" height="402.098" fill="white"/>
</clipPath>
<clipPath id="clip1_901_15">
<rect width="633" height="86" fill="white" transform="translate(492 260)"/>
</clipPath>
</defs>
</svg>
